<?xml version="1.0" encoding="utf-8"?>
<!-- Generator: Adobe Illustrator 16.0.0, SVG Export Plug-In . SVG Version: 6.00 Build 0)  -->
<!DOCTYPE svg PUBLIC "-//W3C//DTD SVG 1.1//EN" "http://www.w3.org/Graphics/SVG/1.1/DTD/svg11.dtd">
<svg version="1.1" id="Layer_1" xmlns="http://www.w3.org/2000/svg" xmlns:xlink="http://www.w3.org/1999/xlink" x="0px" y="0px"
	 width="237.664px" height="29.684px" viewBox="0 0 237.664 29.684" enable-background="new 0 0 237.664 29.684"
	 xml:space="preserve">
<g>
	<path fill="#FFF" d="M0,0.492h11.726c6.848,0,10.988,4.059,10.988,9.922v0.082c0,6.642-5.166,10.086-11.603,10.086H6.314v8.609H0V0.492z
		 M11.316,14.965c3.156,0,5.002-1.886,5.002-4.346v-0.082c0-2.829-1.969-4.346-5.125-4.346H6.314v8.774H11.316z"/>
	<path fill="#FFF" d="M40.057,14.924v-0.082C40.057,6.683,46.493,0,55.35,0s15.211,6.601,15.211,14.76v0.082c0,8.159-6.437,14.842-15.293,14.842
		S40.057,23.083,40.057,14.924z M63.96,14.924v-0.082c0-4.92-3.608-9.02-8.692-9.02s-8.61,4.018-8.61,8.938v0.082
		c0,4.92,3.608,9.02,8.692,9.02S63.96,19.844,63.96,14.924z"/>
	<path fill="#FFF" d="M90.116,0.492h6.314v22.96h14.309v5.739H90.116V0.492z"/>
	<path fill="#FFF" d="M129.435,0.492h6.313v22.96h14.31v5.739h-20.623V0.492z"/>
	<path fill="#FFF" d="M169.752,0.492h21.647v5.617h-15.375v5.822h13.53v5.617h-13.53v6.026h15.58v5.617h-21.853V0.492z"/>
	<path fill="#FFF" d="M212.162,0.492h5.821l13.448,17.671V0.492h6.232v28.7h-5.371l-13.899-18.245v18.245h-6.231V0.492z"/>
</g>
</svg>
